<?xml version="1.0" encoding="utf-8"?>
<!-- Generator: Adobe Illustrator 27.6.1, SVG Export Plug-In . SVG Version: 6.00 Build 0)  -->
<svg version="1.1" id="Layer_1" xmlns="http://www.w3.org/2000/svg" xmlns:xlink="http://www.w3.org/1999/xlink" x="0px" y="0px"
	 viewBox="70 194 455 455" style="enable-background:new 0 0 595.28 841.89;" xml:space="preserve">
<style type="text/css">
	.st0{fill:#FFFFFF;}
	.st1{fill:none;stroke:#606161;stroke-miterlimit:10;}
	.st2{fill:url(#SVGID_1_);}
	.st3{fill:url(#SVGID_00000125562632691395935030000011850335700423005599_);}
	.st4{fill:url(#SVGID_00000034795635154075894980000013442975977836133776_);}
	.st5{fill:url(#SVGID_00000030474413910601563520000017655388984931398053_);}
	.st6{fill:url(#SVGID_00000165923826519818443730000007995953571874810809_);}
	.st7{fill:none;stroke:#231F20;stroke-miterlimit:10;}
</style>
<g>
	<circle class="st0" cx="297.64" cy="420.94" r="226.47"/>
	<g>
		<linearGradient id="SVGID_1_" gradientUnits="userSpaceOnUse" x1="389.6254" y1="361.1717" x2="252.8901" y2="390.4107">
			<stop  offset="0" style="stop-color:#12178C"/>
			<stop  offset="1" style="stop-color:#007DF4"/>
		</linearGradient>
		<path class="st2" d="M281.94,453.57c41.34-9.88,74.53-39.4,74.53-39.4c16-10.59,42.36-44.31,20.62-72.68
			c-21.73-28.37-85.03-28.83-85.03-28.83l12.08,3.78c55.54,7.31,63.54,39.9,47.79,69.53s-57.03,46.75-57.03,46.75l-15.05,8.32
			L281.94,453.57z"/>
		
			<linearGradient id="SVGID_00000165233650200598633750000006345685648520955801_" gradientUnits="userSpaceOnUse" x1="2441.9932" y1="-81.3298" x2="2592.8042" y2="-81.3298" gradientTransform="matrix(-1 0 0 -1 2836.5879 260.1626)">
			<stop  offset="0" style="stop-color:#0049F9"/>
			<stop  offset="1" style="stop-color:#007DF4"/>
		</linearGradient>
		<path style="fill:url(#SVGID_00000165233650200598633750000006345685648520955801_);" d="M259.25,321.64l-15.47-87
			c0,0,24.61,17.13,70.57,38.01c30.78,13.99,54.02,25.57,69.8,51.37c15.78,25.8,15.54,60.62-13.78,84.97
			c-21.53,17.89-55.66,33.99-71.39,39.36c0,0,80.65-37.75,80.21-81.94C378.76,322.64,329.31,307.55,259.25,321.64z"/>
		
			<linearGradient id="SVGID_00000047029731420093949960000002441572438778985116_" gradientUnits="userSpaceOnUse" x1="2461.2532" y1="-201.6896" x2="2608.1868" y2="-201.6896" gradientTransform="matrix(-1 0 0 -1 2836.5879 260.1626)">
			<stop  offset="0" style="stop-color:#0049F9"/>
			<stop  offset="1" style="stop-color:#007DF4"/>
		</linearGradient>
		<path style="fill:url(#SVGID_00000047029731420093949960000002441572438778985116_);" d="M237.49,470.79
			c0.13-0.17,0.22-0.27,0.29-0.35c0.04-0.06,0.07-0.07,0.09-0.09c-0.97,3.01-1.69,5.83-2.16,8.49c-2.24,12.17,0.35,20.84,5.55,26.98
			c1.01,3.01,2.62,6.1,4.99,9.26c0.05,0.07,0.11,0.15,0.2,0.24c2.84,3.35,5.74,6.45,8.65,9.27c7.04,6.54,14.66,11.8,22.12,15.98
			c21.7,12.22,41.97,15.47,41.97,15.47s-0.02-0.04-0.07-0.11c-1.19-1.58-15.4-21-29.49-71.29c-1.74-6.58-3.7-14.28-5.88-23.24
			c-0.51-2.09-1.03-4.31-1.54-6.6c-0.07-0.29-0.13-0.59-0.2-0.9c-0.02-0.11-0.06-0.22-0.07-0.33c-0.86-3.89-1.74-8.03-2.62-12.35
			c-0.02-0.05-0.04-0.11-0.04-0.16c-9.84-48.37-20.03-119.4-20.03-119.4c5.64-2.8,20.42-4.11,31.49-4.69c0.05,0,0.11-0.02,0.18-0.02
			c7.48-0.38,13.23-0.48,13.23-0.48c-9.49,41.82-10.28,80.38-5.97,114.82c0.68,5.53,1.48,10.98,2.44,16.29c0,0.04,0,0.07,0.02,0.11
			c0,0.04,0,0.05,0.02,0.09c17.43,98.71,74.69,159.49,74.69,159.49s-62.74-3.48-111.32-46.9
			C208.08,510.36,233.83,475.22,237.49,470.79z"/>
		
			<linearGradient id="SVGID_00000050625479653800256500000009421012641410529946_" gradientUnits="userSpaceOnUse" x1="225.8699" y1="501.3784" x2="294.8826" y2="433.0108">
			<stop  offset="0" style="stop-color:#12178C"/>
			<stop  offset="1" style="stop-color:#007DF4"/>
		</linearGradient>
		<path style="fill:url(#SVGID_00000050625479653800256500000009421012641410529946_);" d="M241.27,505.81
			c0,0-38.66-27.92,38.05-64.6l2.69,12.68c0,0-51.62,17.73-41.12,50.64"/>
		
			<linearGradient id="SVGID_00000099648640026600306690000010616154362639778956_" gradientUnits="userSpaceOnUse" x1="323.0835" y1="549.0507" x2="225.0469" y2="489.7128">
			<stop  offset="0" style="stop-color:#12178C"/>
			<stop  offset="1" style="stop-color:#007DF4"/>
		</linearGradient>
		<path style="fill:url(#SVGID_00000099648640026600306690000010616154362639778956_);" d="M241.27,505.81
			c0.96,3.02,2.62,6.1,4.99,9.26c0.05,0.07,0.11,0.15,0.2,0.24c2.84,3.35,5.74,6.45,8.65,9.27c7.04,6.54,14.66,11.8,22.12,15.98
			c21.7,12.22,41.97,15.47,41.97,15.47s-0.02-0.03-0.07-0.11c-11.28-17.14-19.59-40.47-19.59-40.47s-38.46,6.01-57.71-9.19"/>
	</g>
</g>
</svg>
